<svg xmlns="http://www.w3.org/2000/svg" viewBox="0 0 14.13 18.58"><defs><style>.cls-1{fill:#4e56a5;}.cls-2{fill:#fff;}</style></defs><title>Asset 13</title><g id="Layer_2" data-name="Layer 2"><g id="Layer_1-2" data-name="Layer 1"><path class="cls-1" d="M14.07,6.11a7.08,7.08,0,0,0-6-6A7.06,7.06,0,0,0,4.56.46,7,7,0,0,0,2.46,1.71,7.11,7.11,0,0,0,.75,3.91a7,7,0,0,0-.74,3A7.93,7.93,0,0,0,.15,8.69c.08.39.17.78.28,1.17a12.3,12.3,0,0,0,1,2.42,14.44,14.44,0,0,0,1.24,2c.39.51.79,1,1.21,1.52a19.31,19.31,0,0,0,2,2c.3.26.6.51.92.74a.54.54,0,0,0,.67,0c.46-.39.93-.78,1.37-1.19a19.1,19.1,0,0,0,1.63-1.7,20,20,0,0,0,1.51-2,15.29,15.29,0,0,0,1.23-2.25A11.93,11.93,0,0,0,13.92,9a9.83,9.83,0,0,0,.2-2.18C14.11,6.65,14.1,6.38,14.07,6.11Z"/><circle class="cls-2" cx="7.01" cy="7.24" r="5.82"/><path class="cls-1" d="M11,6.92a.3.3,0,0,0-.41-.1l-1,.58-.25.15V8.92l.24.14h0l1,.57a.27.27,0,0,0,.17.05.29.29,0,0,0,.3-.3V7.07A.23.23,0,0,0,11,6.92Z"/><path class="cls-1" d="M5.16,6.48a1.4,1.4,0,1,0-1.4-1.4A1.4,1.4,0,0,0,5.16,6.48Zm0-2a.58.58,0,1,1-.58.58A.56.56,0,0,1,5.16,4.5Z"/><path class="cls-1" d="M8.71,6.56A1.67,1.67,0,0,1,8,6.74a1.63,1.63,0,0,1-.91-.27h-1a1.63,1.63,0,0,1-.91.27,1.56,1.56,0,0,1-.75-.18.68.68,0,0,0-.34.58V9.27a.71.71,0,0,0,.71.71H8.35a.71.71,0,0,0,.71-.71V7.14A.71.71,0,0,0,8.71,6.56Z"/><path class="cls-1" d="M8,6.48a1.4,1.4,0,1,0-1.4-1.4A1.4,1.4,0,0,0,8,6.48Zm0-2a.58.58,0,1,1-.58.58A.57.57,0,0,1,8,4.5Z"/></g></g></svg>