<svg xmlns="http://www.w3.org/2000/svg" viewBox="0 0 14.13 18.58"><defs><style>.cls-1{fill:#ef4887;}.cls-2{fill:#fff;}</style></defs><title>Asset 4</title><g id="Layer_2" data-name="Layer 2"><g id="Layer_1-2" data-name="Layer 1"><path class="cls-1" d="M14.07,6.11a7.08,7.08,0,0,0-6-6A7.06,7.06,0,0,0,4.56.46,7,7,0,0,0,2.46,1.71,7.11,7.11,0,0,0,.75,3.91a7,7,0,0,0-.74,3A7.93,7.93,0,0,0,.15,8.69c.08.39.17.78.28,1.17a12.3,12.3,0,0,0,1,2.42,14.44,14.44,0,0,0,1.24,2c.39.51.79,1,1.21,1.52a19.31,19.31,0,0,0,2,2c.3.26.6.51.92.74a.54.54,0,0,0,.67,0c.46-.39.93-.78,1.37-1.19a19.1,19.1,0,0,0,1.63-1.7,20,20,0,0,0,1.51-2,15.29,15.29,0,0,0,1.23-2.25A11.93,11.93,0,0,0,13.92,9a9.83,9.83,0,0,0,.2-2.18C14.11,6.65,14.1,6.38,14.07,6.11Z"/><circle class="cls-2" cx="7.01" cy="7.24" r="5.82"/><path class="cls-1" d="M9.62,5.33H9.19a.68.68,0,0,0,.1-.3A.76.76,0,0,0,8,4.38l-.54.49a.58.58,0,0,0-.85,0l-.54-.49A.76.76,0,0,0,4.81,5a.68.68,0,0,0,.1.3H4.49a.38.38,0,0,0-.38.38v.58a.19.19,0,0,0,.19.19H9.81A.19.19,0,0,0,10,6.29V5.71A.38.38,0,0,0,9.62,5.33ZM6.48,5.26v.06h-.9a.38.38,0,0,1-.16-.72.37.37,0,0,1,.41.06l.65.59ZM8.91,5a.39.39,0,0,1-.4.35H7.63V5.26h0l.64-.58a.38.38,0,0,1,.36-.09A.37.37,0,0,1,8.91,5Z"/><path class="cls-1" d="M4.49,6.86V9.68a.38.38,0,0,0,.38.38H6.67V6.86Z"/><path class="cls-1" d="M7.44,6.86v3.2H9.23a.38.38,0,0,0,.38-.38V6.86H7.44Z"/></g></g></svg>