<svg xmlns="http://www.w3.org/2000/svg" viewBox="0 0 14.13 18.58"><defs><style>.cls-1{fill:#7d68ae;}.cls-2{fill:#fff;}</style></defs><title>Asset 9</title><g id="Layer_2" data-name="Layer 2"><g id="Layer_1-2" data-name="Layer 1"><path class="cls-1" d="M14.07,6.11a7.08,7.08,0,0,0-6-6A7.06,7.06,0,0,0,4.56.46,7,7,0,0,0,2.46,1.71,7.11,7.11,0,0,0,.75,3.91a7,7,0,0,0-.74,3A7.93,7.93,0,0,0,.15,8.69c.08.39.17.78.28,1.17a12.3,12.3,0,0,0,1,2.42,14.44,14.44,0,0,0,1.24,2c.39.51.79,1,1.21,1.52a19.31,19.31,0,0,0,2,2c.3.26.6.51.92.74a.54.54,0,0,0,.67,0c.46-.39.93-.78,1.37-1.19a19.1,19.1,0,0,0,1.63-1.7,20,20,0,0,0,1.51-2,15.29,15.29,0,0,0,1.23-2.25A11.93,11.93,0,0,0,13.92,9a9.83,9.83,0,0,0,.2-2.18C14.11,6.65,14.1,6.38,14.07,6.11Z"/><circle class="cls-2" cx="7.01" cy="7.24" r="5.82"/><path class="cls-1" d="M11.49,7.5H4.67c-.2,0-.31-.09-.32-.26S4.44,7,4.66,7H5.72c.15,0,.2,0,.19-.19s0-.47,0-.7a.28.28,0,0,1,.33-.3L9.19,6l1.86.19a.47.47,0,0,1,.45.5c0,.23,0,.46,0,.69A.77.77,0,0,1,11.49,7.5Z"/><path class="cls-1" d="M11.49,8V9.92h-.64q0-.41,0-.81c0-.44,0-.44-.44-.44H4.13c-.27,0-.27,0-.27.27s0,.64,0,1H3.32s-.06-.06-.09-.09,0,0,0-.05q0-2.27,0-4.54a.29.29,0,0,1,.24-.31.29.29,0,0,1,.35.17.49.49,0,0,1,0,.2q0,1.24,0,2.48c0,.26,0,.26.25.26h7.38Z"/><path class="cls-1" d="M4.93,6.57A.56.56,0,0,1,4.34,6a.58.58,0,0,1,.59-.61A.59.59,0,0,1,5.52,6,.57.57,0,0,1,4.93,6.57Z"/></g></g></svg>