<svg xmlns="http://www.w3.org/2000/svg" viewBox="0 0 14.13 18.58"><defs><style>.cls-1{fill:#fec885;}.cls-2{fill:#fff;}</style></defs><title>Asset 14</title><g id="Layer_2" data-name="Layer 2"><g id="Layer_1-2" data-name="Layer 1"><path class="cls-1" d="M14.07,6.11a7.08,7.08,0,0,0-6-6A7.06,7.06,0,0,0,4.56.46,7,7,0,0,0,2.46,1.71,7.11,7.11,0,0,0,.75,3.91a7,7,0,0,0-.74,3A7.93,7.93,0,0,0,.15,8.69c.08.39.17.78.28,1.17a12.3,12.3,0,0,0,1,2.42,14.44,14.44,0,0,0,1.24,2c.39.51.79,1,1.21,1.52a19.31,19.31,0,0,0,2,2c.3.26.6.51.92.74a.54.54,0,0,0,.67,0c.46-.39.93-.78,1.37-1.19a19.1,19.1,0,0,0,1.63-1.7,20,20,0,0,0,1.51-2,15.29,15.29,0,0,0,1.23-2.25A11.93,11.93,0,0,0,13.92,9a9.83,9.83,0,0,0,.2-2.18C14.11,6.65,14.1,6.38,14.07,6.11Z"/><circle class="cls-2" cx="7.01" cy="7.24" r="5.82"/><path class="cls-1" d="M10.54,9.61H4.12a.26.26,0,0,0,0,.52h6.42a.26.26,0,0,0,0-.52Z"/><path class="cls-1" d="M4.66,6.18V8.76H4.52A.24.24,0,0,0,4.31,9v.17h6V9a.24.24,0,0,0-.21-.25H10V6.18H8.87V8.76h-1V6.18H6.77V8.76h-1V6.18Z"/><path class="cls-1" d="M4.33,5.76h6a.24.24,0,0,0,.21-.25.26.26,0,0,0-.12-.23l-3-1.85a.18.18,0,0,0-.2,0l-3,1.86a.27.27,0,0,0-.11.29A.22.22,0,0,0,4.33,5.76Z"/></g></g></svg>