<svg xmlns="http://www.w3.org/2000/svg" viewBox="0 0 14.13 18.58"><defs><style>.cls-1{fill:#4cc2c1;}.cls-2{fill:#fff;}</style></defs><title>Asset 7</title><g id="Layer_2" data-name="Layer 2"><g id="Layer_1-2" data-name="Layer 1"><path class="cls-1" d="M14.07,6.11a7.08,7.08,0,0,0-6-6A7.06,7.06,0,0,0,4.56.46,7,7,0,0,0,2.46,1.71,7.11,7.11,0,0,0,.75,3.91a7,7,0,0,0-.74,3A7.93,7.93,0,0,0,.15,8.69c.08.39.17.78.28,1.17a12.3,12.3,0,0,0,1,2.42,14.44,14.44,0,0,0,1.24,2c.39.51.79,1,1.21,1.52a19.31,19.31,0,0,0,2,2c.3.26.6.51.92.74a.54.54,0,0,0,.67,0c.46-.39.93-.78,1.37-1.19a19.1,19.1,0,0,0,1.63-1.7,20,20,0,0,0,1.51-2,15.29,15.29,0,0,0,1.23-2.25A11.93,11.93,0,0,0,13.92,9a9.83,9.83,0,0,0,.2-2.18C14.11,6.65,14.1,6.38,14.07,6.11Z"/><circle class="cls-2" cx="7.01" cy="7.24" r="5.82"/><path class="cls-1" d="M9.75,5.11a.05.05,0,0,0-.05,0h-1V4.8a1.55,1.55,0,1,0-3.09,0v.27h-1a.05.05,0,0,0-.05,0L4.26,10a.05.05,0,0,0,0,0l0,0h5.76l0,0a.05.05,0,0,0,0,0ZM6.08,4.8a1.12,1.12,0,0,1,2.24,0v.27H6.08ZM5.86,6.56A.53.53,0,0,1,5.33,6a.5.5,0,0,1,.32-.49V6a.21.21,0,0,0,.43,0V5.53A.5.5,0,0,1,6.4,6,.53.53,0,0,1,5.86,6.56Zm2.67,0A.53.53,0,0,1,8,6a.5.5,0,0,1,.32-.49V6a.21.21,0,0,0,.43,0V5.53A.5.5,0,0,1,9.06,6,.53.53,0,0,1,8.53,6.56Z"/></g></g></svg>