<svg xmlns="http://www.w3.org/2000/svg" viewBox="0 0 14.13 18.58"><defs><style>.cls-1{fill:#6fbe44;}.cls-2{fill:#fff;}</style></defs><title>Asset 8</title><g id="Layer_2" data-name="Layer 2"><g id="Layer_1-2" data-name="Layer 1"><path class="cls-1" d="M14.07,6.11a7.08,7.08,0,0,0-6-6A7.06,7.06,0,0,0,4.56.46,7,7,0,0,0,2.46,1.71,7.11,7.11,0,0,0,.75,3.91a7,7,0,0,0-.74,3A7.93,7.93,0,0,0,.15,8.69c.08.39.17.78.28,1.17a12.3,12.3,0,0,0,1,2.42,14.44,14.44,0,0,0,1.24,2c.39.51.79,1,1.21,1.52a19.31,19.31,0,0,0,2,2c.3.26.6.51.92.74a.54.54,0,0,0,.67,0c.46-.39.93-.78,1.37-1.19a19.1,19.1,0,0,0,1.63-1.7,20,20,0,0,0,1.51-2,15.29,15.29,0,0,0,1.23-2.25A11.93,11.93,0,0,0,13.92,9a9.83,9.83,0,0,0,.2-2.18C14.11,6.65,14.1,6.38,14.07,6.11Z"/><circle class="cls-2" cx="7.01" cy="7.24" r="5.82"/><path class="cls-1" d="M11.56,9.21,9.69,6.86a.32.32,0,0,0-.45-.05l0,0L8,8.09l-2.2-3A.34.34,0,0,0,5.36,5a.25.25,0,0,0-.08.08L2.37,9.22a.32.32,0,0,0,.08.45.29.29,0,0,0,.18.06h8.69a.32.32,0,0,0,.32-.32A.3.3,0,0,0,11.56,9.21Z"/><path class="cls-1" d="M9.25,4a.88.88,0,1,0,.88.88A.88.88,0,0,0,9.25,4Z"/></g></g></svg>