<svg xmlns="http://www.w3.org/2000/svg" viewBox="0 0 14.13 18.58"><defs><style>.cls-1{fill:#673c16;}.cls-2{fill:#fff;}</style></defs><title>Asset 12</title><g id="Layer_2" data-name="Layer 2"><g id="Layer_1-2" data-name="Layer 1"><path class="cls-1" d="M14.07,6.11a7.08,7.08,0,0,0-6-6A7.06,7.06,0,0,0,4.56.46,7,7,0,0,0,2.46,1.71,7.11,7.11,0,0,0,.75,3.91a7,7,0,0,0-.74,3A7.93,7.93,0,0,0,.15,8.69c.08.39.17.78.28,1.17a12.3,12.3,0,0,0,1,2.42,14.44,14.44,0,0,0,1.24,2c.39.51.79,1,1.21,1.52a19.31,19.31,0,0,0,2,2c.3.26.6.51.92.74a.54.54,0,0,0,.67,0c.46-.39.93-.78,1.37-1.19a19.1,19.1,0,0,0,1.63-1.7,20,20,0,0,0,1.51-2,15.29,15.29,0,0,0,1.23-2.25A11.93,11.93,0,0,0,13.92,9a9.83,9.83,0,0,0,.2-2.18C14.11,6.65,14.1,6.38,14.07,6.11Z"/><circle class="cls-2" cx="7.01" cy="7.24" r="5.82"/><path class="cls-1" d="M7.08,3.53a3.75,3.75,0,1,0,3.75,3.75A3.75,3.75,0,0,0,7.08,3.53ZM7.65,5.1c.31,0,.5,1,.5,1.25a.5.5,0,1,1-1,0C7.15,6.07,7.34,5.1,7.65,5.1ZM6.4,5.1c.3,0,.5,1,.5,1.25a.5.5,0,1,1-1,0C5.89,6.07,6.09,5.09,6.4,5.1ZM4.85,7.37c0-.28.3-1.24.51-1.25s.5,1,.5,1.25a.5.5,0,1,1-1,0Zm3.9,1.73c-.42.74-.75.09-1.67.09s-1.23.66-1.67-.09c-.23-.39.53-.69.78-.92s.38-.81.9-.81.59.51.9.78S9,8.67,8.75,9.11ZM8.8,7.88a.51.51,0,0,1-.5-.5c0-.28.25-1.24.5-1.25s.5,1,.5,1.25A.51.51,0,0,1,8.8,7.88Z"/></g></g></svg>