<svg xmlns="http://www.w3.org/2000/svg" xmlns:xlink="http://www.w3.org/1999/xlink" viewBox="0 0 70.8 32.71"><defs><style>.cls-1{fill:#fdbc49;}.cls-2{fill:url(#linear-gradient);}</style><linearGradient id="linear-gradient" x1="35.4" y1="32.71" x2="35.4" y2="15.42" gradientUnits="userSpaceOnUse"><stop offset="0" stop-color="#20aed1"/><stop offset="1" stop-color="#18678f"/></linearGradient></defs><title>Asset 1</title><g id="Layer_2" data-name="Layer 2"><g id="Layer_1-2" data-name="Layer 1"><path class="cls-1" d="M47.87,12.14a8.08,8.08,0,0,1-.17,1.79,9.8,9.8,0,0,1-.62,1.91,12.57,12.57,0,0,1-1,1.85,16.45,16.45,0,0,1-1.24,1.64,15.7,15.7,0,0,1-1.34,1.4c-.37.34-.75.66-1.13,1a.44.44,0,0,1-.55,0c-.26-.19-.51-.4-.75-.61a15.87,15.87,0,0,1-1.6-1.62c-.34-.41-.67-.83-1-1.25a11.87,11.87,0,0,1-1-1.61,10.11,10.11,0,0,1-.83-2c-.09-.32-.16-.64-.23-1a6.52,6.52,0,0,1-.12-1.5A5.83,5.83,0,0,1,40,6.93a5.8,5.8,0,0,1,2.89-.32,5.82,5.82,0,0,1,4.92,5C47.85,11.79,47.86,12,47.87,12.14ZM42.06,14.7a2.34,2.34,0,1,0-2.34-2.36A2.34,2.34,0,0,0,42.06,14.7Z"/><rect class="cls-1" x="29.83" y="12.2" width="5.14" height="0.7" rx="0.28" ry="0.28" transform="translate(-0.36 0.96) rotate(-1.69)"/><rect class="cls-1" x="30.66" y="7.74" width="5.14" height="0.7" rx="0.28" ry="0.28" transform="translate(6.65 -13.43) rotate(25.31)"/><rect class="cls-1" x="33.43" y="4.14" width="5.14" height="0.7" rx="0.28" ry="0.28" transform="translate(17.54 -26.74) rotate(52.31)"/><rect class="cls-1" x="37.53" y="2.19" width="5.14" height="0.7" rx="0.28" ry="0.28" transform="translate(35.16 -37.33) rotate(79.31)"/><rect class="cls-1" x="42.06" y="2.32" width="5.14" height="0.7" rx="0.28" ry="0.28" transform="translate(59.73 -39.42) rotate(106.31)"/><rect class="cls-1" x="46.05" y="4.49" width="5.14" height="0.7" rx="0.28" ry="0.28" transform="translate(85.49 -27.22) rotate(133.31)"/><rect class="cls-1" x="48.62" y="8.23" width="5.14" height="0.7" rx="0.28" ry="0.28" transform="translate(102.27 -0.58) rotate(160.31)"/><rect class="cls-1" x="49.2" y="12.73" width="5.14" height="0.7" rx="0.28" ry="0.28" transform="translate(101.45 32.65) rotate(-172.69)"/><path class="cls-2" d="M7.59,21.29a2.57,2.57,0,0,1,.48,1.58,2.44,2.44,0,0,1-.93,2,4,4,0,0,1-2.55.73H.89a.9.9,0,0,1-.65-.23A.86.86,0,0,1,0,24.75V16.37a.86.86,0,0,1,.24-.65.9.9,0,0,1,.65-.23H4.45a4,4,0,0,1,2.48.7,2.54,2.54,0,0,1,.47,3.34,2.42,2.42,0,0,1-1.17.86A2.45,2.45,0,0,1,7.59,21.29ZM1.81,19.76H4.15q1.91,0,1.91-1.42a1.23,1.23,0,0,0-.47-1.06,2.44,2.44,0,0,0-1.44-.34H1.81Zm4.05,4.07a1.33,1.33,0,0,0,.46-1.12,1.37,1.37,0,0,0-.47-1.14A2.32,2.32,0,0,0,4.4,21.2H1.81v3H4.4A2.39,2.39,0,0,0,5.86,23.83Zm9.75.06a.78.78,0,0,1,.15.5.87.87,0,0,1-.53.75,4.8,4.8,0,0,1-1.11.44,4.57,4.57,0,0,1-1.18.17,3.66,3.66,0,0,1-2.69-1,3.58,3.58,0,0,1-1-2.67,4.1,4.1,0,0,1,.43-1.91,3.14,3.14,0,0,1,1.21-1.29,3.44,3.44,0,0,1,1.77-.46,3.18,3.18,0,0,1,1.65.42A2.83,2.83,0,0,1,15.43,20a3.91,3.91,0,0,1,.39,1.8q0,.62-.55.62H11a2.26,2.26,0,0,0,.56,1.46,1.89,1.89,0,0,0,1.38.47,2.61,2.61,0,0,0,.81-.11,8,8,0,0,0,.8-.32,1.59,1.59,0,0,1,.63-.23A.48.48,0,0,1,15.61,23.89Zm-4.05-3.74A2.17,2.17,0,0,0,11,21.47h3.25a2,2,0,0,0-.43-1.33,1.42,1.42,0,0,0-1.12-.45A1.54,1.54,0,0,0,11.56,20.15Zm10.95-1a3,3,0,0,1,.71,2.21v3.51a.81.81,0,0,1-.23.61.87.87,0,0,1-.63.22.84.84,0,0,1-.61-.23.8.8,0,0,1-.24-.6v-.32a1.87,1.87,0,0,1-.77.88,2.31,2.31,0,0,1-1.21.32,2.82,2.82,0,0,1-1.28-.29,2.28,2.28,0,0,1-.91-.79A2,2,0,0,1,17,23.54a1.78,1.78,0,0,1,.4-1.22,2.38,2.38,0,0,1,1.29-.65,11.71,11.71,0,0,1,2.46-.2h.36v-.33a1.47,1.47,0,0,0-.3-1,1.28,1.28,0,0,0-1-.32,3.11,3.11,0,0,0-.85.12q-.43.12-1,.35a1.44,1.44,0,0,1-.55.19.54.54,0,0,1-.42-.19.71.71,0,0,1-.17-.49.74.74,0,0,1,.12-.42,1.16,1.16,0,0,1,.41-.34,4.69,4.69,0,0,1,1.2-.43,6.19,6.19,0,0,1,1.37-.16A2.93,2.93,0,0,1,22.51,19.15ZM21.06,24a1.74,1.74,0,0,0,.45-1.24v-.3h-.26a9.92,9.92,0,0,0-1.49.09,1.45,1.45,0,0,0-.76.3.77.77,0,0,0-.23.59,1,1,0,0,0,.32.75,1.14,1.14,0,0,0,.8.29A1.53,1.53,0,0,0,21.06,24Zm5.26,1.33A3,3,0,0,1,25.09,24a4.4,4.4,0,0,1,0-3.84,3.2,3.2,0,0,1,1.27-1.3,3.78,3.78,0,0,1,1.88-.46,4.19,4.19,0,0,1,1.13.16,3.74,3.74,0,0,1,1,.43.89.89,0,0,1,.46.76.81.81,0,0,1-.15.51.48.48,0,0,1-.4.19.86.86,0,0,1-.33-.07l-.34-.17a3.89,3.89,0,0,0-.6-.29,1.87,1.87,0,0,0-.66-.11,1.68,1.68,0,0,0-1.37.58,2.57,2.57,0,0,0-.48,1.67A2.54,2.54,0,0,0,27,23.75a1.68,1.68,0,0,0,1.37.58,1.77,1.77,0,0,0,.64-.11,5.42,5.42,0,0,0,.63-.29,2.83,2.83,0,0,1,.37-.19.83.83,0,0,1,.32-.06.48.48,0,0,1,.39.2.79.79,0,0,1,.16.5.81.81,0,0,1-.11.42,1,1,0,0,1-.35.32,3.77,3.77,0,0,1-1,.45,4.45,4.45,0,0,1-1.21.17A3.72,3.72,0,0,1,26.32,25.3Zm12.32-4v3.53a.84.84,0,0,1-.24.63.9.9,0,0,1-.65.23.93.93,0,0,1-.66-.23.83.83,0,0,1-.24-.63V21.32a1.66,1.66,0,0,0-.31-1.11,1.23,1.23,0,0,0-1-.35,1.64,1.64,0,0,0-1.24.49,1.81,1.81,0,0,0-.47,1.31v3.2a.83.83,0,0,1-.24.63.93.93,0,0,1-.66.23.9.9,0,0,1-.65-.23.84.84,0,0,1-.24-.63V16.26a.78.78,0,0,1,.25-.6.93.93,0,0,1,.65-.23.94.94,0,0,1,.65.22.75.75,0,0,1,.24.59v3.35a2.35,2.35,0,0,1,1-.85,3,3,0,0,1,1.36-.29Q38.64,18.43,38.64,21.32Zm15-5.43a.92.92,0,0,1,.24.67v8.51a.85.85,0,0,1-.23.63.82.82,0,0,1-.6.23.77.77,0,0,1-.59-.23.89.89,0,0,1-.22-.63V19.14l-2.44,4.63a1.42,1.42,0,0,1-.37.47.77.77,0,0,1-.47.15.79.79,0,0,1-.47-.14,1.32,1.32,0,0,1-.37-.47l-2.46-4.55v5.85a.87.87,0,0,1-.22.63.78.78,0,0,1-.6.24.77.77,0,0,1-.59-.23.89.89,0,0,1-.22-.63V16.55a.93.93,0,0,1,.24-.67.84.84,0,0,1,.64-.25,1,1,0,0,1,.88.62l3.19,6.08,3.18-6.08a1,1,0,0,1,.85-.62A.86.86,0,0,1,53.6,15.88Zm7.51,3.48a3,3,0,0,1,.71,2.21v3.51a.81.81,0,0,1-.23.61.87.87,0,0,1-.63.22.84.84,0,0,1-.61-.23.8.8,0,0,1-.24-.6v-.32a1.87,1.87,0,0,1-.77.88,2.31,2.31,0,0,1-1.21.32,2.82,2.82,0,0,1-1.28-.29,2.28,2.28,0,0,1-.91-.79,2,2,0,0,1-.33-1.12,1.78,1.78,0,0,1,.4-1.22,2.38,2.38,0,0,1,1.29-.65,11.71,11.71,0,0,1,2.46-.2h.36v-.33a1.47,1.47,0,0,0-.3-1,1.28,1.28,0,0,0-1-.32,3.11,3.11,0,0,0-.85.12q-.43.12-1,.35a1.44,1.44,0,0,1-.55.19.54.54,0,0,1-.42-.19.71.71,0,0,1-.17-.49.74.74,0,0,1,.12-.42,1.16,1.16,0,0,1,.41-.34,4.69,4.69,0,0,1,1.2-.43,6.19,6.19,0,0,1,1.37-.16A2.93,2.93,0,0,1,61.1,19.36Zm-1.45,4.81a1.74,1.74,0,0,0,.45-1.24v-.3h-.26a9.92,9.92,0,0,0-1.49.09,1.45,1.45,0,0,0-.76.3.77.77,0,0,0-.23.59,1,1,0,0,0,.32.75,1.14,1.14,0,0,0,.8.29A1.53,1.53,0,0,0,59.65,24.18Zm9.64-5.08a3.05,3.05,0,0,1,1.11,1.3,4.49,4.49,0,0,1,.4,1.93,4.35,4.35,0,0,1-.4,1.91,2.9,2.9,0,0,1-2.72,1.71,2.78,2.78,0,0,1-1.34-.32,2.22,2.22,0,0,1-.91-.88v2.93a.74.74,0,0,1-.24.59.94.94,0,0,1-.65.22.93.93,0,0,1-.65-.23.78.78,0,0,1-.25-.6V19.51a.82.82,0,0,1,.24-.62.88.88,0,0,1,.64-.23.91.91,0,0,1,.65.23.81.81,0,0,1,.24.62v.36a2.2,2.2,0,0,1,.91-.91,2.8,2.8,0,0,1,1.36-.32A2.91,2.91,0,0,1,69.29,19.1ZM68.53,24A2.54,2.54,0,0,0,69,22.33a2.68,2.68,0,0,0-.47-1.7,1.77,1.77,0,0,0-2.65,0,2.65,2.65,0,0,0-.47,1.68A2.62,2.62,0,0,0,65.88,24a1.79,1.79,0,0,0,2.65,0Zm-58,7.47c3.13-2.84,9.33-1.6,12.93-.52s6.78,2.49,10.48,1.4a22.09,22.09,0,0,0,4.31-2.17,9.16,9.16,0,0,1,7-.74c4,1,7.69,3.18,12,2.62.86-.11.88-1.49,0-1.37-4.76.62-8.81-2.33-13.4-2.91a9.5,9.5,0,0,0-5,.61c-2,.87-3.7,2.35-5.91,2.82-4.37.94-8.7-1.84-13-2.44-3.4-.47-7.62-.75-10.35,1.73-.66.6.32,1.57,1,1Z"/></g></g></svg>