<svg xmlns="http://www.w3.org/2000/svg" viewBox="0 0 14.13 18.58"><defs><style>.cls-1{fill:#168f6b;}.cls-2{fill:#fff;}</style></defs><title>Asset 11</title><g id="Layer_2" data-name="Layer 2"><g id="Layer_1-2" data-name="Layer 1"><path class="cls-1" d="M14.07,6.11a7.08,7.08,0,0,0-6-6A7.06,7.06,0,0,0,4.56.46,7,7,0,0,0,2.46,1.71,7.11,7.11,0,0,0,.75,3.91a7,7,0,0,0-.74,3A7.93,7.93,0,0,0,.15,8.69c.08.39.17.78.28,1.17a12.3,12.3,0,0,0,1,2.42,14.44,14.44,0,0,0,1.24,2c.39.51.79,1,1.21,1.52a19.31,19.31,0,0,0,2,2c.3.26.6.51.92.74a.54.54,0,0,0,.67,0c.46-.39.93-.78,1.37-1.19a19.1,19.1,0,0,0,1.63-1.7,20,20,0,0,0,1.51-2,15.29,15.29,0,0,0,1.23-2.25A11.93,11.93,0,0,0,13.92,9a9.83,9.83,0,0,0,.2-2.18C14.11,6.65,14.1,6.38,14.07,6.11Z"/><circle class="cls-2" cx="7.01" cy="7.24" r="5.82"/><path class="cls-1" d="M10.12,5.89c-.16-.38-.48-1-.86-1A.6.6,0,0,0,9,5a.14.14,0,0,0-.06.14s.14.67.17,1a2.46,2.46,0,0,1-.49,2l-.24.22a.12.12,0,0,0,0,.2,3,3,0,0,0,.65.18.16.16,0,0,0,0,0v1.4H7.19V8.41a1.47,1.47,0,0,0,1-.67c.49-.78.08-3.12-.57-4.3-.25-.45-.51-.67-.77-.67h0c-.26,0-.51.23-.76.67C5.48,4.62,5.07,7,5.56,7.74a1.47,1.47,0,0,0,1,.67v1.78H4.74V8.78a.16.16,0,0,0,0,0,2.92,2.92,0,0,0,.57-.16.11.11,0,0,0,.07-.09.12.12,0,0,0,0-.11l-.25-.23a2.5,2.5,0,0,1-.39-2.09c0-.29.15-.88.15-.88A.14.14,0,0,0,4.79,5a.71.71,0,0,0-.33-.16c-.33,0-.59.47-.76.87-.36.87-.62,2.32-.23,2.72a1.13,1.13,0,0,0,.78.31v1.42H3.73a.17.17,0,0,0-.18.17v.25a.18.18,0,0,0,.18.17h6.33a.17.17,0,0,0,.17-.17v-.25a.17.17,0,0,0-.17-.17H9.54V8.78h0a1.1,1.1,0,0,0,.72-.3C10.68,8,10.51,6.82,10.12,5.89Z"/></g></g></svg>