<svg xmlns="http://www.w3.org/2000/svg" viewBox="0 0 14.13 18.58"><defs><style>.cls-1{fill:#f26b42;}.cls-2{fill:#fff;}</style></defs><title>Asset 6</title><g id="Layer_2" data-name="Layer 2"><g id="Layer_1-2" data-name="Layer 1"><path class="cls-1" d="M14.07,6.11a7.08,7.08,0,0,0-6-6A7.06,7.06,0,0,0,4.56.46,7,7,0,0,0,2.46,1.71,7.11,7.11,0,0,0,.75,3.91a7,7,0,0,0-.74,3A7.93,7.93,0,0,0,.15,8.69c.08.39.17.78.28,1.17a12.3,12.3,0,0,0,1,2.42,14.44,14.44,0,0,0,1.24,2c.39.51.79,1,1.21,1.52a19.31,19.31,0,0,0,2,2c.3.26.6.51.92.74a.54.54,0,0,0,.67,0c.46-.39.93-.78,1.37-1.19a19.1,19.1,0,0,0,1.63-1.7,20,20,0,0,0,1.51-2,15.29,15.29,0,0,0,1.23-2.25A11.93,11.93,0,0,0,13.92,9a9.83,9.83,0,0,0,.2-2.18C14.11,6.65,14.1,6.38,14.07,6.11Z"/><circle class="cls-2" cx="7.01" cy="7.24" r="5.82"/><path class="cls-1" d="M5.5,6.1v4.61a.44.44,0,0,0,.88,0V6.1c.13,0,.63-.49.63-.63V3.62a.22.22,0,0,0-.44,0V5.06a.22.22,0,0,1-.44,0V3.62a.22.22,0,0,0-.44,0V5.06a.22.22,0,0,1-.44,0V3.62a.22.22,0,0,0-.44,0V5.48C4.78,5.62,5.37,6.06,5.5,6.1Z"/><path class="cls-1" d="M5.95,11.16h0Z"/><path class="cls-1" d="M8.78,11.25h0Z"/><path class="cls-1" d="M7.83,7.21h.5v3.59a.44.44,0,0,0,.88,0V3.44A.22.22,0,0,0,9,3.22H8.83A1.11,1.11,0,0,0,7.72,4.33V7.1a.11.11,0,0,0,.11.11Z"/></g></g></svg>