<svg xmlns="http://www.w3.org/2000/svg" viewBox="0 0 14.13 18.58"><defs><style>.cls-1{fill:#ef4130;}.cls-2{fill:#fff;}</style></defs><title>Asset 5</title><g id="Layer_2" data-name="Layer 2"><g id="Layer_1-2" data-name="Layer 1"><path class="cls-1" d="M14.07,6.11a7.08,7.08,0,0,0-6-6A7.06,7.06,0,0,0,4.56.46,7,7,0,0,0,2.46,1.71,7.11,7.11,0,0,0,.75,3.91a7,7,0,0,0-.74,3A7.93,7.93,0,0,0,.15,8.69c.08.39.17.78.28,1.17a12.3,12.3,0,0,0,1,2.42,14.44,14.44,0,0,0,1.24,2c.39.51.79,1,1.21,1.52a19.31,19.31,0,0,0,2,2c.3.26.6.51.92.74a.54.54,0,0,0,.67,0c.46-.39.93-.78,1.37-1.19a19.1,19.1,0,0,0,1.63-1.7,20,20,0,0,0,1.51-2,15.29,15.29,0,0,0,1.23-2.25A11.93,11.93,0,0,0,13.92,9a9.83,9.83,0,0,0,.2-2.18C14.11,6.65,14.1,6.38,14.07,6.11Z"/><circle class="cls-2" cx="7.01" cy="7.24" r="5.82"/><path class="cls-1" d="M6.52,4.55v.16a1.69,1.69,0,0,1,.36,0A.22.22,0,0,1,7,4.85l.32.67a.22.22,0,0,1,.1.06.3.3,0,0,0,.14.08.29.29,0,0,0,.28-.07.22.22,0,0,1,.28,0,.22.22,0,0,1,0,.35.73.73,0,0,1-.52.22h0l.42.9.05.11a1.39,1.39,0,0,1,1.4.34.23.23,0,0,1,0,.31.22.22,0,0,1-.32,0,1,1,0,0,0-1-.23A2.94,2.94,0,0,1,8.24,9l.18.05a.46.46,0,0,0,.22,0,2.5,2.5,0,0,0,1.9-2.43V4.55a.25.25,0,0,0-.16-.23,5.3,5.3,0,0,0-1.85-.27,5.3,5.3,0,0,0-1.85.27A.25.25,0,0,0,6.52,4.55ZM9,5.58a.22.22,0,0,1,.31,0,.29.29,0,0,0,.41,0,.22.22,0,1,1,.31.31.74.74,0,0,1-1,0A.22.22,0,0,1,9,5.58Z"/><path class="cls-1" d="M7.66,7.2l-.89-1.9a.23.23,0,0,0-.23-.13,5.27,5.27,0,0,0-1.8.54,5.3,5.3,0,0,0-1.56,1,.25.25,0,0,0,0,.28L4,8.9a2.5,2.5,0,0,0,2.75,1.39A.45.45,0,0,0,7,10.2,2.5,2.5,0,0,0,7.66,7.2ZM5.86,7.05a.74.74,0,0,1,.94-.44A.22.22,0,1,1,6.65,7a.29.29,0,0,0-.37.18.22.22,0,0,1-.21.15H6A.22.22,0,0,1,5.86,7.05ZM5,7.8A.29.29,0,0,0,4.63,8a.22.22,0,0,1-.21.15H4.35a.22.22,0,0,1-.13-.28.74.74,0,0,1,.94-.44A.22.22,0,1,1,5,7.8Zm.74,1.45a1.38,1.38,0,0,1-.47-.08.22.22,0,1,1,.15-.42,1,1,0,0,0,1.21-.57.22.22,0,1,1,.42.15A1.39,1.39,0,0,1,5.75,9.25Z"/></g></g></svg>